<svg width="24" height="24" viewBox="0 0 24 24" fill="none" xmlns="http://www.w3.org/2000/svg">
<path d="M1.44434 1C2.05545 1 3.38878 1 3.83322 1C4.38878 1 4.99989 1.38889 4.99989 2.11111C4.99989 2.31806 5.1413 3.61979 5.347 5.38889M18.4999 18.7222C15.3703 18.7222 8.93322 18.7222 8.22211 18.7222C7.33322 18.7222 7.05545 18.3333 6.88878 17.6111C6.76987 17.0958 5.85916 9.79367 5.347 5.38889M5.347 5.38889C10.2683 5.38889 20.2443 5.38889 20.7777 5.38889C21.4443 5.38889 22.8888 6.11111 22.3332 7.66667C21.7777 9.22222 21.111 12 20.7777 12.8889C20.4443 13.7778 19.7221 14.2222 18.7221 14.2222C17.9221 14.2222 12.7592 14.2222 10.2777 14.2222" stroke="black" stroke-width="1.33333"/>
<rect x="5.88892" y="21.8889" width="2" height="2.11111" fill="black"/>
<rect x="17" y="21.8889" width="2" height="2.11111" fill="black"/>
</svg>
