<svg width="60" height="60" viewBox="0 0 60 60" fill="none" xmlns="http://www.w3.org/2000/svg">
<rect width="60" height="60" rx="10" fill="#FFC700"/>
<mask id="path-2-inside-1_639_1195" fill="white">
<path fill-rule="evenodd" clip-rule="evenodd" d="M38 6L48 16V49C48 51.7614 45.7614 54 43 54H17C14.2386 54 12 51.7614 12 49V11C12 8.23858 14.2386 6 17 6H38Z"/>
</mask>
<path fill-rule="evenodd" clip-rule="evenodd" d="M38 6L48 16V49C48 51.7614 45.7614 54 43 54H17C14.2386 54 12 51.7614 12 49V11C12 8.23858 14.2386 6 17 6H38Z" fill="#FFC700"/>
<path d="M38 6L38.7071 5.29289L38.4142 5H38V6ZM48 16H49V15.5858L48.7071 15.2929L48 16ZM37.2929 6.70711L47.2929 16.7071L48.7071 15.2929L38.7071 5.29289L37.2929 6.70711ZM47 16V49H49V16H47ZM47 49C47 51.2091 45.2091 53 43 53V55C46.3137 55 49 52.3137 49 49H47ZM43 53H17V55H43V53ZM17 53C14.7909 53 13 51.2091 13 49H11C11 52.3137 13.6863 55 17 55V53ZM13 49V11H11V49H13ZM13 11C13 8.79086 14.7909 7 17 7V5C13.6863 5 11 7.68629 11 11H13ZM17 7H38V5H17V7Z" fill="black" mask="url(#path-2-inside-1_639_1195)"/>
<path d="M38.5 13V7.20711L46.7929 15.5H41C39.6193 15.5 38.5 14.3807 38.5 13Z" stroke="black"/>
<path d="M18.2908 35C18.2055 35 18.1357 34.9733 18.0814 34.92C18.0271 34.8667 18 34.7981 18 34.7143V27.2857C18 27.2019 18.0271 27.1333 18.0814 27.08C18.1357 27.0267 18.2055 27 18.2908 27H23.6304C23.7157 27 23.7855 27.0267 23.8398 27.08C23.9018 27.1333 23.9329 27.2019 23.9329 27.2857V28.44C23.9329 28.5238 23.9018 28.5924 23.8398 28.6457C23.7855 28.699 23.7157 28.7257 23.6304 28.7257H20.0474V30.4057H23.3977C23.483 30.4057 23.5528 30.4362 23.6071 30.4971C23.6692 30.5505 23.7002 30.619 23.7002 30.7029V31.8457C23.7002 31.9219 23.6692 31.9905 23.6071 32.0514C23.5528 32.1048 23.483 32.1314 23.3977 32.1314H20.0474V34.7143C20.0474 34.7981 20.0203 34.8667 19.966 34.92C19.9117 34.9733 19.8419 35 19.7566 35H18.2908Z" fill="black"/>
<path d="M25.4706 35C25.3853 35 25.3155 34.9733 25.2612 34.92C25.2069 34.8667 25.1798 34.7981 25.1798 34.7143V27.2857C25.1798 27.2019 25.2069 27.1333 25.2612 27.08C25.3155 27.0267 25.3853 27 25.4706 27H27.0294C27.1147 27 27.1845 27.0267 27.2388 27.08C27.2931 27.1333 27.3203 27.2019 27.3203 27.2857V34.7143C27.3203 34.7981 27.2931 34.8667 27.2388 34.92C27.1845 34.9733 27.1147 35 27.0294 35H25.4706Z" fill="black"/>
<path d="M29.2423 35C29.157 35 29.0872 34.9733 29.0329 34.92C28.9786 34.8667 28.9514 34.7981 28.9514 34.7143V27.2857C28.9514 27.2019 28.9786 27.1333 29.0329 27.08C29.0872 27.0267 29.157 27 29.2423 27H30.7778C30.8554 27 30.9213 27.0267 30.9756 27.08C31.0376 27.1333 31.0687 27.2019 31.0687 27.2857V33.2743H34.5818C34.6671 33.2743 34.7369 33.3048 34.7912 33.3657C34.8533 33.419 34.8843 33.4876 34.8843 33.5714V34.7143C34.8843 34.7981 34.8533 34.8667 34.7912 34.92C34.7369 34.9733 34.6671 35 34.5818 35H29.2423Z" fill="black"/>
<path d="M36.1835 35C36.0982 35 36.0284 34.9733 35.9741 34.92C35.9198 34.8667 35.8926 34.7981 35.8926 34.7143V27.2857C35.8926 27.2019 35.9198 27.1333 35.9741 27.08C36.0284 27.0267 36.0982 27 36.1835 27H41.6161C41.7014 27 41.7712 27.0267 41.8255 27.08C41.8798 27.1333 41.9069 27.2019 41.9069 27.2857V28.36C41.9069 28.4438 41.8798 28.5124 41.8255 28.5657C41.7712 28.619 41.7014 28.6457 41.6161 28.6457H37.9052V30.1886H41.3602C41.4455 30.1886 41.5153 30.219 41.5696 30.28C41.6239 30.3333 41.651 30.4019 41.651 30.4857V31.48C41.651 31.5562 41.6239 31.6248 41.5696 31.6857C41.5153 31.739 41.4455 31.7657 41.3602 31.7657H37.9052V33.3543H41.7092C41.7945 33.3543 41.8643 33.381 41.9186 33.4343C41.9729 33.4876 42 33.5562 42 33.64V34.7143C42 34.7981 41.9729 34.8667 41.9186 34.92C41.8643 34.9733 41.7945 35 41.7092 35H36.1835Z" fill="black"/>
</svg>
