<svg width="14" height="14" viewBox="0 0 14 14" fill="none" xmlns="http://www.w3.org/2000/svg">
<rect width="14" height="14" rx="7" fill="#FFC000"/>
<path fill-rule="evenodd" clip-rule="evenodd" d="M6.60632 7.21578L4.16134 10.6303C4.03613 10.8052 3.82558 10.897 3.61238 10.8704C3.3697 10.8402 3.03556 10.7491 2.69091 10.5013C2.34636 10.2534 2.15328 9.96545 2.04703 9.74471C1.95372 9.55074 1.97292 9.32143 2.09825 9.14646L4.54323 5.73191C4.65966 5.56922 4.81227 5.43597 4.98917 5.34269L5.47014 5.08893C5.56668 5.03794 5.65305 4.97004 5.72531 4.88812C5.95874 4.62335 6.58551 3.92903 7.69695 2.80703L7.71626 2.71804C7.72077 2.69753 7.73626 2.68131 7.75661 2.67621L7.81789 2.6608C7.84448 2.65408 7.8624 2.62893 7.8602 2.60147L7.85396 2.52581C7.85142 2.49452 7.87512 2.46694 7.90634 2.46602C7.9801 2.46393 8.12381 2.48525 8.32649 2.63102C8.52917 2.77667 8.59531 2.90634 8.61693 2.97702C8.62606 3.00703 8.60768 3.03843 8.57715 3.04596L8.50362 3.06427C8.47691 3.07088 8.45888 3.0959 8.46107 3.12348L8.46616 3.18652C8.46789 3.20737 8.45749 3.22754 8.43957 3.2382L8.36164 3.28513C7.65683 4.69948 7.20106 5.51685 7.02555 5.82333C6.97121 5.91811 6.93468 6.02182 6.91745 6.12981L6.83143 6.66781C6.79987 6.86549 6.72287 7.05309 6.60632 7.21578Z" fill="#C36F26"/>
<path d="M9.50947 5.73188L11.9544 9.14644C12.0798 9.32152 12.099 9.55072 12.0056 9.74481C11.8993 9.96554 11.7063 10.2535 11.3618 10.5012C11.0144 10.7512 10.6776 10.8417 10.4344 10.8712C10.2229 10.8967 10.0154 10.8037 9.89135 10.6303L7.44637 7.21576C7.32983 7.05307 7.25283 6.86547 7.22126 6.66779L7.21687 6.64102C7.19236 6.48772 7.19236 6.33129 7.21687 6.17788C7.22843 6.10592 7.2526 6.03732 7.28878 5.97429C7.4014 5.77754 7.6509 5.33235 8.02157 4.62135C8.03314 4.59922 8.06435 4.59528 8.08112 4.61359C8.18749 4.73074 8.27015 4.8232 8.32738 4.88809C8.39965 4.97013 8.48601 5.03792 8.58255 5.0889L9.06364 5.34278C9.24031 5.43606 9.39304 5.5692 9.50947 5.73188Z" fill="#82481D"/>
<path d="M5.54925 3.06428L5.47572 3.04597C5.44519 3.03844 5.42681 3.00704 5.43594 2.97703C5.45756 2.90635 5.5237 2.77669 5.72638 2.63092C5.92963 2.4848 6.07358 2.46383 6.14711 2.46603C6.17821 2.46696 6.20145 2.49465 6.19891 2.52582L6.19267 2.60148C6.19047 2.62895 6.20839 2.65409 6.23498 2.66081L6.29626 2.67622C6.31649 2.68132 6.33222 2.69754 6.33661 2.71794L6.35592 2.80704C6.50576 2.95826 6.64462 3.09974 6.77665 3.23508C6.79816 3.25721 6.797 3.29278 6.7755 3.31503C6.51478 3.58525 6.29383 3.81873 6.11023 4.01549C6.09404 4.03287 6.06664 4.0287 6.05589 4.00749C5.94281 3.78652 5.82165 3.54678 5.69123 3.28514L5.6133 3.23821C5.59527 3.22743 5.58498 3.2075 5.58671 3.18653L5.5918 3.12349C5.59388 3.09603 5.57596 3.07089 5.54925 3.06428Z" fill="#82481D"/>
</svg>
