<svg width="255" height="68" viewBox="0 0 255 68" fill="none" xmlns="http://www.w3.org/2000/svg">
<g clip-path="url(#clip0_601_3037)">
<path d="M39.0931 46.0957C47.5923 44.0806 52.8561 35.5255 50.8501 26.9874C48.8441 18.4493 40.328 13.1615 31.8288 15.1767C23.3296 17.1918 18.0659 25.7469 20.0719 34.285C22.0778 42.823 30.594 48.1109 39.0931 46.0957Z" fill="black"/>
<path d="M60.4726 11.4814C61.7049 8.49282 60.2922 5.06655 57.3172 3.82863C54.3422 2.59071 50.9315 4.00992 49.6993 6.99852C48.467 9.98711 49.8797 13.4134 52.8547 14.6513C55.8297 15.8892 59.2403 14.47 60.4726 11.4814Z" fill="black"/>
<path d="M39.3713 63.7018C41.6482 61.4144 41.6482 57.7058 39.3713 55.4185C37.0943 53.1311 33.4027 53.1311 31.1257 55.4185C28.8488 57.7058 28.8488 61.4144 31.1257 63.7018C33.4027 65.9891 37.0943 65.9891 39.3713 63.7018Z" fill="black"/>
<path d="M10.9397 34.5818C13.2166 32.2944 13.2166 28.5858 10.9397 26.2984C8.6627 24.0111 4.97103 24.0111 2.69408 26.2984C0.417124 28.5858 0.417125 32.2944 2.69408 34.5817C4.97103 36.8691 8.6627 36.8691 10.9397 34.5818Z" fill="black"/>
<path d="M35.4658 3.56915C39.3954 3.56768 43.2775 4.43158 46.8389 6.10003L48.4225 2.9304C44.5498 1.1027 40.3373 0.114791 36.0594 0.0309951C31.7814 -0.052801 27.5339 0.769392 23.5932 2.44405C19.6525 4.11871 16.1071 6.60829 13.1877 9.75072C10.2684 12.8932 8.04051 16.618 6.64917 20.6827L9.96032 21.8879C11.7793 16.544 15.2159 11.905 19.7892 8.62033C24.3626 5.33562 29.8438 3.56951 35.4658 3.56915Z" fill="black"/>
<path d="M58.8837 17.2841C60.851 20.7633 62.0253 24.6376 62.3219 28.6277C62.6186 32.6178 62.0301 36.6244 60.5991 40.3585C59.168 44.0925 56.93 47.4611 54.0464 50.2212C51.1628 52.9814 47.7054 55.0644 43.9236 56.32L45.0393 59.6824C49.3006 58.2655 53.1976 55.92 56.4513 52.8136C59.7051 49.7073 62.2352 45.9169 63.8606 41.7137C65.4861 37.5105 66.1668 32.9984 65.8539 28.5001C65.5411 24.0018 64.2424 19.6286 62.0509 15.6933L58.8837 17.2841Z" fill="black"/>
<path d="M9.99616 39.4474L6.52905 40.2187C8.00919 44.7007 10.498 48.7796 13.802 52.1385C17.1061 55.4974 21.1365 58.0459 25.5802 59.586L26.7799 56.2597C22.8938 54.924 19.3622 52.7155 16.4538 49.8022C13.5454 46.8888 11.3369 43.3474 9.99616 39.4474Z" fill="black"/>
<path d="M98.1015 45.3046L88.7559 24.1898H83.9572L74.5276 45.3046H79.5183L81.3778 40.7731H91.1553L93.0268 45.3046H98.1015ZM82.9374 37.0371L86.2726 28.9503L89.6077 37.0371H82.9374Z" fill="black"/>
<path d="M118.173 43.8102C118.869 43.3481 119.433 42.7115 119.81 41.9633C120.186 41.2151 120.362 40.3812 120.32 39.5439C120.362 38.3589 120.002 37.1949 119.3 36.2416C118.582 35.324 117.596 34.6542 116.481 34.3254C117.324 33.8897 118.034 33.2314 118.533 32.4212C119.032 31.5935 119.29 30.6413 119.276 29.6734C119.297 28.8857 119.118 28.1055 118.758 27.4058C118.397 26.7062 117.865 26.1097 117.213 25.6722C115.446 24.5753 113.383 24.0573 111.31 24.1898H101.041V45.3046H111.91C114.1 45.4493 116.282 44.9286 118.173 43.8102ZM105.876 27.8656H110.675C111.628 27.8026 112.578 28.0204 113.41 28.4923C113.714 28.6895 113.961 28.9639 114.125 29.2877C114.289 29.6116 114.365 29.9733 114.346 30.3363C114.37 30.701 114.299 31.0657 114.142 31.3951C113.984 31.7245 113.744 32.0074 113.446 32.2163C112.614 32.6882 111.664 32.906 110.711 32.843H105.912L105.876 27.8656ZM105.876 41.6288V36.4104H111.55C114.142 36.4104 115.425 37.2781 115.425 39.0256C115.452 39.4103 115.376 39.795 115.205 40.1403C115.034 40.4856 114.775 40.7789 114.454 40.9901C113.564 41.4717 112.559 41.693 111.55 41.6288H105.876Z" fill="black"/>
<path d="M131.609 28.8539C132.677 28.2628 133.881 27.9636 135.1 27.9861C136.108 27.9746 137.106 28.1906 138.019 28.6182C138.933 29.0459 139.739 29.6742 140.379 30.4568L143.51 27.5643C142.506 26.3583 141.231 25.4083 139.791 24.7924C138.065 24.0853 136.208 23.7582 134.346 23.833C132.483 23.9079 130.658 24.383 128.994 25.2263C127.304 26.1228 125.893 27.4697 124.915 29.119C123.94 30.833 123.427 32.773 123.427 34.7472C123.427 36.7214 123.94 38.6615 124.915 40.3754C125.896 42.0221 127.307 43.3681 128.994 44.2682C130.783 45.2125 132.779 45.693 134.8 45.6662C136.5 45.6889 138.187 45.3608 139.755 44.702C141.218 44.0737 142.506 43.0976 143.51 41.8578L140.343 39.0015C139.709 39.7934 138.905 40.4305 137.991 40.8647C137.076 41.2989 136.076 41.519 135.064 41.5083C133.845 41.5308 132.641 41.2316 131.573 40.6406C130.562 40.0815 129.73 39.2456 129.174 38.2302C128.614 37.1509 128.322 35.952 128.322 34.7352C128.322 33.5183 128.614 32.3195 129.174 31.2401C129.739 30.2253 130.585 29.3965 131.609 28.8539Z" fill="black"/>
<path d="M78.0907 56.0548L73.8438 65.3347H74.5636L75.7633 62.7316H81.1259L82.3256 65.3347H83.0454L78.7985 56.0548H78.0907ZM76.0032 62.1531L78.4026 56.8021L80.802 62.1531H76.0032Z" fill="black"/>
<path d="M89.8837 60.0199C89.606 59.5118 89.1898 59.0937 88.684 58.8147C88.1813 58.5225 87.6092 58.3726 87.0284 58.3808C86.4194 58.3712 85.8188 58.5251 85.2889 58.8268C84.7881 59.1124 84.3735 59.5288 84.0892 60.0319C83.802 60.5909 83.6521 61.2107 83.6521 61.8397C83.6521 62.4687 83.802 63.0886 84.0892 63.6475C84.3768 64.1481 84.7905 64.5638 85.2889 64.8527C85.8177 65.1585 86.4183 65.3166 87.0284 65.3106C87.6187 65.3222 88.2005 65.1677 88.708 64.8647C89.2167 64.5896 89.6338 64.1706 89.9077 63.6595V65.2865H90.5435V55.5005H89.8837V60.0199ZM89.5238 63.3944C89.297 63.821 88.9563 64.1758 88.54 64.4188C88.1074 64.6729 87.6134 64.8022 87.1124 64.7924C86.6152 64.8019 86.1252 64.6725 85.6968 64.4188C85.2805 64.1758 84.9398 63.821 84.713 63.3944C84.4638 62.9277 84.3359 62.4054 84.3411 61.8759C84.3358 61.3501 84.4638 60.8317 84.713 60.3694C84.9396 59.9394 85.28 59.5807 85.6968 59.3329C86.1272 59.0843 86.6159 58.9553 87.1124 58.9593C87.6127 58.9555 88.1052 59.0844 88.54 59.3329C88.9568 59.5807 89.2972 59.9394 89.5238 60.3694C89.7689 60.8328 89.8927 61.3512 89.8837 61.8759C89.8926 62.4044 89.7689 62.9266 89.5238 63.3944Z" fill="black"/>
<path d="M95.4382 64.6116L92.6909 58.417H91.9951L95.0903 65.3468H95.7621L98.8813 58.417H98.2095L95.4382 64.6116Z" fill="black"/>
<path d="M102.445 58.3688C101.926 58.3666 101.411 58.4522 100.921 58.6219C100.477 58.7794 100.069 59.0254 99.7214 59.345L100.045 59.827C100.357 59.5469 100.719 59.33 101.113 59.1883C101.531 59.0287 101.974 58.947 102.421 58.9473C102.975 58.9067 103.523 59.0887 103.944 59.4534C104.129 59.6484 104.271 59.8797 104.362 60.1328C104.453 60.386 104.49 60.6553 104.472 60.9238V61.4781H102.073C101.373 61.4171 100.676 61.6095 100.105 62.0205C99.9078 62.2012 99.7511 62.4223 99.6458 62.6689C99.5404 62.9156 99.4889 63.182 99.4946 63.4503C99.5002 63.7186 99.563 63.9825 99.6787 64.2244C99.7944 64.4663 99.9603 64.6805 100.165 64.8527C100.688 65.2402 101.328 65.432 101.977 65.395C102.504 65.4042 103.026 65.2886 103.5 65.0575C103.908 64.8441 104.243 64.5124 104.46 64.1054V65.3106H105.096V60.9479C105.121 60.5954 105.072 60.2416 104.952 59.9094C104.832 59.5771 104.644 59.274 104.4 59.0196C103.858 58.5538 103.156 58.3201 102.445 58.3688ZM104.436 63.298C104.269 63.7876 103.949 64.2102 103.524 64.5032C103.091 64.7777 102.585 64.9162 102.073 64.9009C101.57 64.9327 101.071 64.7925 100.657 64.5032C100.508 64.3742 100.388 64.2142 100.305 64.0343C100.223 63.8544 100.18 63.6587 100.18 63.4607C100.18 63.2627 100.223 63.067 100.305 62.887C100.388 62.7071 100.508 62.5472 100.657 62.4182C101.092 62.1284 101.613 61.9966 102.133 62.0446H104.532L104.436 63.298Z" fill="black"/>
<path d="M111.19 58.3688C110.608 58.351 110.031 58.4926 109.523 58.7785C109.061 59.0389 108.688 59.4339 108.455 59.9114V58.417H107.819V65.3347H108.479V61.7192C108.447 61.3535 108.491 60.9852 108.606 60.637C108.722 60.2887 108.907 59.968 109.151 59.6945C109.399 59.443 109.697 59.2475 110.026 59.1207C110.355 58.994 110.707 58.9389 111.058 58.9593C111.368 58.9344 111.679 58.9764 111.97 59.0824C112.262 59.1884 112.528 59.356 112.75 59.574C112.96 59.8151 113.121 60.096 113.221 60.4003C113.322 60.7045 113.362 61.0258 113.338 61.3456V65.3347H113.95V61.2974C113.977 60.9013 113.924 60.5039 113.794 60.129C113.664 59.7541 113.46 59.4095 113.194 59.116C112.925 58.865 112.61 58.6697 112.266 58.5415C111.922 58.4133 111.557 58.3546 111.19 58.3688Z" fill="black"/>
<path d="M118.017 59.3209C118.457 59.0776 118.953 58.9531 119.456 58.9593C119.871 58.953 120.282 59.0438 120.656 59.2245C121.027 59.394 121.346 59.6603 121.58 59.9958L122.06 59.6342C121.784 59.2258 121.402 58.9008 120.956 58.6942C120.483 58.4708 119.966 58.3595 119.444 58.3688C118.82 58.3592 118.204 58.5128 117.657 58.8147C117.155 59.0994 116.74 59.516 116.457 60.0199C116.159 60.5793 116.006 61.2053 116.013 61.8397C116.006 62.4703 116.159 63.0924 116.457 63.6475C116.742 64.1502 117.156 64.5666 117.657 64.8527C118.203 65.1588 118.819 65.3166 119.444 65.3106C119.966 65.32 120.483 65.2086 120.956 64.9852C121.405 64.778 121.788 64.4481 122.06 64.0332L121.58 63.6716C121.343 64.0076 121.025 64.2773 120.656 64.455C120.279 64.626 119.87 64.7123 119.456 64.7081C118.953 64.7143 118.457 64.5897 118.017 64.3465C117.593 64.1045 117.245 63.7501 117.009 63.3221C116.762 62.8506 116.639 62.324 116.649 61.7915C116.638 61.2628 116.762 60.7402 117.009 60.273C117.256 59.8727 117.604 59.5445 118.017 59.3209Z" fill="black"/>
<path d="M128.178 58.8147C127.67 58.5117 127.089 58.3573 126.498 58.3688C125.904 58.3588 125.319 58.5131 124.807 58.8147C124.303 59.0963 123.887 59.5138 123.607 60.0199C123.314 60.5765 123.166 61.1982 123.175 61.8277C123.159 62.4647 123.317 63.094 123.631 63.6475C123.916 64.1502 124.33 64.5666 124.831 64.8527C125.392 65.1632 126.025 65.3211 126.666 65.3106C127.17 65.3179 127.67 65.2151 128.13 65.0093C128.569 64.8317 128.957 64.5457 129.258 64.1778L128.874 63.7439C128.621 64.0593 128.296 64.3076 127.926 64.467C127.545 64.6218 127.138 64.7035 126.726 64.7081C126.214 64.7195 125.707 64.6035 125.251 64.3706C124.823 64.1478 124.466 63.8098 124.219 63.3944C123.958 62.9569 123.818 62.4579 123.811 61.9482H129.738V61.7674C129.749 61.1378 129.6 60.5157 129.306 59.9596C129.035 59.4858 128.647 59.0911 128.178 58.8147ZM123.859 61.5264C123.886 61.0557 124.022 60.5978 124.255 60.1886C124.481 59.806 124.804 59.49 125.191 59.2727C125.591 59.0514 126.042 58.9392 126.498 58.9473C126.956 58.94 127.408 59.0565 127.806 59.2847C128.193 59.5021 128.515 59.818 128.742 60.2007C128.987 60.6 129.124 61.0572 129.138 61.5264H123.859Z" fill="black"/>
<path d="M137.308 60.0199C137.039 59.5073 136.632 59.0808 136.133 58.7889C135.635 58.497 135.065 58.3515 134.488 58.3688C133.879 58.3591 133.279 58.5131 132.749 58.8147C132.248 59.1003 131.833 59.5168 131.549 60.0199C131.269 60.5811 131.124 61.2 131.124 61.8277C131.124 62.4553 131.269 63.0743 131.549 63.6354C131.837 64.1361 132.251 64.5517 132.749 64.8406C133.278 65.1465 133.878 65.3046 134.488 65.2986C135.079 65.3101 135.66 65.1557 136.168 64.8527C136.677 64.5776 137.094 64.1585 137.368 63.6475V65.2745H137.944V55.5005H137.284L137.308 60.0199ZM136.948 63.3944C136.57 64.0371 135.955 64.5047 135.237 64.6964C134.519 64.888 133.754 64.7883 133.109 64.4188C132.695 64.1724 132.355 63.8185 132.125 63.3944C131.88 62.9266 131.756 62.4044 131.765 61.8759C131.756 61.3512 131.88 60.8328 132.125 60.3694C132.355 59.9419 132.695 59.5841 133.109 59.3329C133.544 59.0844 134.036 58.9555 134.536 58.9593C135.033 58.9553 135.522 59.0843 135.952 59.3329C136.369 59.5838 136.713 59.9415 136.948 60.3694C137.193 60.8328 137.317 61.3512 137.308 61.8759C137.317 62.4044 137.193 62.9266 136.948 63.3944Z" fill="black"/>
<path d="M149.868 60.5502C150.316 60.4129 150.71 60.1392 150.996 59.7668C151.282 59.3812 151.43 58.9098 151.416 58.429C151.429 58.0892 151.36 57.7512 151.214 57.4445C151.067 57.1378 150.848 56.8717 150.576 56.6695C149.863 56.2113 149.021 55.9959 148.177 56.0548H144.326V65.3347H148.453C149.345 65.3961 150.233 65.1771 150.996 64.708C151.276 64.4984 151.5 64.2227 151.649 63.9053C151.797 63.5879 151.866 63.2385 151.848 62.8882C151.875 62.3235 151.691 61.7689 151.332 61.3335C150.945 60.9155 150.43 60.6397 149.868 60.5502ZM145.069 56.6454H148.225C148.882 56.6027 149.536 56.767 150.096 57.1154C150.31 57.2719 150.481 57.4796 150.594 57.7196C150.707 57.9596 150.759 58.2242 150.744 58.4893C150.759 58.7561 150.707 59.0224 150.594 59.2643C150.481 59.5062 150.31 59.7161 150.096 59.8753C149.536 60.2236 148.882 60.3879 148.225 60.3453H145.069V56.6454ZM150.552 64.2862C149.937 64.64 149.232 64.8035 148.525 64.7562H145.069V60.9238H148.525C149.232 60.8765 149.937 61.04 150.552 61.3938C150.784 61.5492 150.971 61.764 151.094 62.0161C151.216 62.2681 151.269 62.5484 151.248 62.828C151.267 63.1133 151.211 63.3986 151.084 63.6549C150.958 63.9111 150.766 64.129 150.528 64.2862H150.552Z" fill="black"/>
<path d="M156.431 58.3688C155.912 58.3667 155.397 58.4522 154.907 58.6219C154.463 58.7794 154.055 59.0254 153.707 59.345L154.031 59.8271C154.343 59.5469 154.706 59.33 155.099 59.1883C155.517 59.0297 155.96 58.9481 156.407 58.9473C156.961 58.9067 157.509 59.0887 157.93 59.4534C158.115 59.6484 158.257 59.8797 158.348 60.1329C158.439 60.386 158.477 60.6553 158.458 60.9238V61.4782H156.059C155.36 61.4193 154.663 61.6115 154.091 62.0205C153.89 62.197 153.729 62.4146 153.619 62.6589C153.508 62.9031 153.451 63.1683 153.451 63.4366C153.451 63.7049 153.508 63.97 153.619 64.2143C153.729 64.4585 153.89 64.6762 154.091 64.8527C154.614 65.2402 155.255 65.432 155.903 65.395C156.43 65.4042 156.952 65.2886 157.427 65.0575C157.834 64.8441 158.169 64.5124 158.386 64.1055V65.3106H159.022V60.9479C159.046 60.5965 158.997 60.244 158.88 59.9123C158.762 59.5806 158.578 59.2767 158.338 59.0196C157.806 58.571 157.125 58.3388 156.431 58.3688ZM158.422 63.298C158.255 63.7876 157.935 64.2102 157.511 64.5032C157.077 64.7777 156.571 64.9162 156.059 64.9009C155.556 64.9327 155.057 64.7925 154.643 64.5032C154.494 64.3742 154.374 64.2142 154.291 64.0343C154.209 63.8544 154.166 63.6587 154.166 63.4607C154.166 63.2627 154.209 63.067 154.291 62.887C154.374 62.7071 154.494 62.5472 154.643 62.4182C155.079 62.1302 155.599 61.9986 156.119 62.0446H158.518L158.422 63.298Z" fill="black"/>
<path d="M162.441 59.9355V58.417H161.805V65.3347H162.465V61.7192C162.421 60.9904 162.653 60.2718 163.113 59.7065C163.345 59.4654 163.625 59.2771 163.936 59.1544C164.246 59.0317 164.579 58.9775 164.912 58.9955H165.068V58.3688C164.499 58.3509 163.935 58.4883 163.437 58.7665C162.987 59.0364 162.637 59.447 162.441 59.9355Z" fill="black"/>
<path d="M170.251 61.9361C169.826 61.8038 169.394 61.6992 168.956 61.6228C168.575 61.5546 168.199 61.4661 167.828 61.3576C167.573 61.2834 167.339 61.1515 167.144 60.972C167.048 60.8795 166.973 60.7667 166.925 60.6416C166.877 60.5165 166.858 60.3824 166.868 60.2489C166.864 60.0644 166.906 59.8819 166.989 59.7177C167.073 59.5536 167.196 59.413 167.348 59.3088C167.781 59.036 168.29 58.9093 168.8 58.9473C169.177 58.9503 169.552 59.003 169.915 59.1039C170.26 59.2038 170.585 59.3628 170.875 59.574L171.175 59.0437C170.857 58.8131 170.499 58.6454 170.119 58.5495C169.698 58.4302 169.262 58.3693 168.824 58.3688C168.135 58.3266 167.452 58.5129 166.88 58.8991C166.671 59.0581 166.501 59.2639 166.384 59.5003C166.268 59.7367 166.207 59.9971 166.208 60.2609C166.188 60.6457 166.312 61.024 166.556 61.3215C166.793 61.5767 167.09 61.7675 167.42 61.8759C167.85 62.021 168.291 62.1299 168.74 62.2013C169.108 62.2627 169.473 62.3472 169.831 62.4543C170.081 62.5181 170.312 62.6422 170.503 62.8159C170.594 62.9068 170.665 63.0161 170.71 63.1367C170.756 63.2573 170.775 63.3862 170.767 63.5149C170.774 63.7028 170.733 63.8894 170.646 64.0563C170.56 64.2232 170.432 64.3647 170.275 64.467C169.807 64.7287 169.273 64.846 168.74 64.8044C168.266 64.8079 167.796 64.7305 167.348 64.5755C166.953 64.4371 166.584 64.2334 166.256 63.9729L165.956 64.5031C166.307 64.7979 166.716 65.0155 167.156 65.1419C167.667 65.3127 168.201 65.3982 168.74 65.395C169.445 65.4334 170.144 65.2525 170.743 64.8768C170.965 64.7221 171.146 64.5147 171.27 64.2729C171.393 64.0311 171.456 63.7625 171.451 63.4908C171.473 63.1225 171.352 62.7599 171.115 62.4784C170.88 62.2242 170.582 62.0371 170.251 61.9361Z" fill="black"/>
<path d="M178.733 57.1516C179.377 56.7893 180.106 56.6062 180.844 56.6213C181.366 56.6019 181.885 56.6892 182.372 56.8777C182.859 57.0662 183.302 57.3521 183.676 57.718L184.095 57.2841C183.698 56.8532 183.205 56.5228 182.656 56.32C181.96 56.065 181.219 55.9579 180.479 56.0057C179.74 56.0534 179.019 56.2548 178.361 56.5972C177.637 57.0022 177.037 57.5976 176.625 58.3196C176.213 59.0416 176.004 59.8627 176.022 60.6948C176.011 61.5399 176.226 62.3724 176.645 63.1052C177.059 63.8004 177.652 64.3707 178.361 64.7563C179.016 65.1066 179.738 65.3125 180.479 65.3603C181.219 65.4081 181.961 65.2967 182.656 65.0334C183.202 64.8259 183.695 64.4962 184.095 64.0693L183.676 63.6354C183.302 64.0024 182.859 64.2897 182.373 64.4803C181.886 64.6708 181.366 64.7606 180.844 64.7442C180.107 64.7536 179.379 64.5709 178.733 64.2139C178.11 63.8748 177.591 63.3704 177.233 62.7557C176.879 62.1161 176.693 61.3964 176.693 60.6647C176.693 59.9329 176.879 59.2132 177.233 58.5737C177.593 57.9695 178.112 57.4773 178.733 57.1516Z" fill="black"/>
<path d="M190.298 58.8147C189.756 58.5225 189.15 58.3696 188.534 58.3696C187.919 58.3696 187.313 58.5225 186.771 58.8147C186.272 59.1027 185.858 59.5186 185.571 60.0199C185.28 60.5776 185.128 61.1979 185.128 61.8276C185.128 62.4574 185.28 63.0777 185.571 63.6354C185.854 64.1393 186.269 64.556 186.771 64.8406C187.309 65.1447 187.917 65.3044 188.534 65.3044C189.152 65.3044 189.759 65.1447 190.298 64.8406C190.797 64.5526 191.211 64.1367 191.498 63.6354C191.789 63.0777 191.941 62.4574 191.941 61.8276C191.941 61.1979 191.789 60.5776 191.498 60.0199C191.208 59.521 190.795 59.1058 190.298 58.8147ZM190.946 63.3944C190.708 63.8228 190.36 64.1789 189.937 64.425C189.515 64.671 189.035 64.798 188.546 64.7924C188.049 64.8038 187.558 64.6743 187.131 64.4188C186.711 64.176 186.367 63.8215 186.135 63.3944C185.89 62.9266 185.766 62.4044 185.775 61.8759C185.766 61.3512 185.89 60.8328 186.135 60.3694C186.366 59.9386 186.71 59.58 187.131 59.3329C187.561 59.0832 188.05 58.9542 188.546 58.9593C189.043 58.9553 189.532 59.0843 189.962 59.3329C190.379 59.5838 190.723 59.9414 190.958 60.3694C191.203 60.8328 191.327 61.3512 191.318 61.8759C191.323 62.4054 191.195 62.9277 190.946 63.3944Z" fill="black"/>
<path d="M202.619 58.3688C202.017 58.3524 201.422 58.5069 200.903 58.8147C200.432 59.0999 200.056 59.5194 199.824 60.0199C199.662 59.5237 199.336 59.0982 198.9 58.8147C198.419 58.5233 197.865 58.3769 197.304 58.3929C196.742 58.377 196.187 58.5144 195.697 58.7906C195.248 59.056 194.888 59.4506 194.665 59.9235V58.417H194.041V65.3347H194.701V61.7192C194.658 61.0009 194.899 60.2947 195.373 59.7547C195.61 59.5067 195.898 59.3128 196.217 59.186C196.536 59.0592 196.878 59.0024 197.22 59.0196C197.512 59.0041 197.805 59.0509 198.077 59.1568C198.35 59.2627 198.598 59.4254 198.804 59.6342C199.208 60.132 199.409 60.765 199.368 61.4058V65.395H200.027V61.7794C199.988 61.0595 200.234 60.3531 200.711 59.815C200.948 59.5686 201.234 59.3755 201.55 59.2488C201.867 59.122 202.206 59.0644 202.547 59.0798C202.839 59.0628 203.132 59.1089 203.405 59.2149C203.678 59.3209 203.925 59.4844 204.13 59.6945C204.54 60.1893 204.742 60.8245 204.694 61.4661V65.4552H205.354V61.2974C205.382 60.9032 205.331 60.5075 205.206 60.1331C205.08 59.7586 204.882 59.4129 204.622 59.116C204.357 58.8598 204.043 58.6612 203.698 58.5327C203.353 58.4041 202.986 58.3483 202.619 58.3688Z" fill="black"/>
<path d="M216.667 58.3688C216.069 58.3527 215.478 58.5073 214.964 58.8147C214.49 59.0964 214.113 59.5169 213.884 60.0199C213.722 59.5204 213.391 59.0939 212.948 58.8147C212.472 58.523 211.922 58.3765 211.365 58.3929C210.799 58.3784 210.24 58.5156 209.745 58.7906C209.298 59.0599 208.942 59.4591 208.725 59.9355V58.417H208.089V65.3347H208.725V61.7192C208.685 60.9993 208.931 60.2928 209.409 59.7547C209.645 59.5083 209.931 59.3153 210.248 59.1885C210.564 59.0618 210.904 59.0042 211.245 59.0196C211.537 59.0018 211.83 59.0474 212.103 59.1535C212.376 59.2596 212.624 59.4235 212.828 59.6342C213.238 60.1291 213.44 60.7642 213.392 61.4058V65.395H214.052V61.7794C214.014 61.4041 214.054 61.025 214.17 60.6661C214.285 60.3072 214.474 59.9763 214.724 59.6945C214.961 59.4465 215.249 59.2525 215.568 59.1257C215.887 58.9989 216.229 58.9422 216.571 58.9593C216.863 58.9439 217.155 58.9906 217.428 59.0965C217.701 59.2025 217.949 59.3652 218.155 59.574C218.559 60.0718 218.76 60.7047 218.719 61.3456V65.3347H219.378V61.2974C219.429 60.502 219.166 59.7185 218.647 59.116C218.383 58.8651 218.072 58.6698 217.732 58.5415C217.392 58.4132 217.03 58.3544 216.667 58.3688Z" fill="black"/>
<path d="M227.512 62.1048C227.545 62.8217 227.305 63.5242 226.841 64.0693C226.602 64.3151 226.313 64.5068 225.995 64.6315C225.676 64.7562 225.335 64.8111 224.993 64.7924C224.687 64.8105 224.381 64.7665 224.092 64.663C223.804 64.5594 223.539 64.3985 223.314 64.1898C222.895 63.6943 222.684 63.0548 222.726 62.4061V58.417H222.066V62.4664C222.025 62.8579 222.071 63.2536 222.201 63.625C222.331 63.9964 222.541 64.3342 222.816 64.6143C223.092 64.8943 223.425 65.1096 223.794 65.2446C224.162 65.3796 224.555 65.431 224.945 65.395C225.501 65.4084 226.049 65.2665 226.529 64.9852C226.971 64.7152 227.325 64.3215 227.548 63.8524V65.3347H228.172V58.417H227.512V62.1048Z" fill="black"/>
<path d="M234.351 58.3688C233.785 58.3428 233.222 58.4675 232.719 58.7303C232.26 58.9942 231.889 59.3882 231.651 59.8632V58.417H231.028V65.3347H231.687V61.7192C231.667 61.3617 231.718 61.0038 231.838 60.6664C231.957 60.3291 232.143 60.0191 232.383 59.7547C232.632 59.5045 232.93 59.3098 233.259 59.1831C233.588 59.0565 233.939 59.0007 234.291 59.0196C234.592 59.0008 234.894 59.0459 235.177 59.1517C235.461 59.2576 235.718 59.422 235.934 59.6342C236.145 59.8754 236.305 60.1563 236.406 60.4605C236.507 60.7647 236.546 61.0861 236.522 61.4058V65.395H237.182V61.2974C237.208 60.9024 237.156 60.5062 237.028 60.1317C236.9 59.7573 236.7 59.412 236.438 59.116C236.159 58.8563 235.829 58.6561 235.471 58.5277C235.112 58.3993 234.731 58.3452 234.351 58.3688Z" fill="black"/>
<path d="M240.541 58.417H239.881V65.3347H240.541V58.417Z" fill="black"/>
<path d="M240.205 55.6571C240.065 55.6657 239.932 55.7256 239.833 55.8255C239.733 55.9254 239.674 56.0584 239.665 56.1995C239.665 56.2701 239.679 56.3401 239.707 56.4052C239.734 56.4703 239.774 56.5293 239.824 56.5787C239.874 56.6281 239.934 56.667 239.999 56.6929C240.065 56.7188 240.135 56.7313 240.205 56.7297C240.277 56.7333 240.348 56.7211 240.414 56.694C240.481 56.6669 240.54 56.6257 240.589 56.5731C240.642 56.5242 240.685 56.4646 240.714 56.3981C240.743 56.3317 240.757 56.2599 240.757 56.1874C240.757 56.1167 240.742 56.0467 240.713 55.9823C240.684 55.9178 240.642 55.8604 240.589 55.8138C240.539 55.763 240.479 55.723 240.413 55.696C240.347 55.6691 240.276 55.6559 240.205 55.6571Z" fill="black"/>
<path d="M246.48 64.4429C246.183 64.6983 245.802 64.8317 245.412 64.8165C245.236 64.8327 245.059 64.8098 244.893 64.7494C244.727 64.689 244.577 64.5926 244.452 64.467C244.217 64.18 244.101 63.8132 244.128 63.4426V58.9834H246.324V58.417H244.128V56.9105H243.516V58.417H242.257V58.9834H243.516V63.5511C243.502 63.8016 243.538 64.0525 243.622 64.2887C243.707 64.5248 243.838 64.7413 244.008 64.925C244.191 65.1008 244.407 65.2366 244.645 65.3238C244.883 65.4109 245.135 65.4475 245.388 65.4312C245.657 65.4302 245.925 65.3854 246.18 65.2986C246.411 65.2248 246.624 65.1015 246.803 64.937L246.48 64.4429Z" fill="black"/>
<path d="M253.33 58.417L250.571 64.6116L247.811 58.417H247.115L250.211 65.3106L249.839 66.1422C249.701 66.5132 249.474 66.8443 249.179 67.1064C248.935 67.2939 248.634 67.3917 248.327 67.3835C248.087 67.3868 247.85 67.3404 247.629 67.247C247.408 67.1537 247.209 67.0156 247.043 66.8412L246.719 67.3353C246.918 67.5431 247.159 67.7037 247.427 67.8054C247.711 67.9135 248.012 67.9666 248.315 67.962C248.746 67.9673 249.167 67.8319 249.515 67.5764C249.928 67.2309 250.242 66.7818 250.427 66.2748L254.026 58.417H253.33Z" fill="black"/>
</g>
<defs>
<clipPath id="clip0_601_3037">
<rect width="253.003" height="67.9482" fill="white" transform="translate(0.998535 0.0259094)"/>
</clipPath>
</defs>
</svg>
