<svg width="86" height="41" viewBox="0 0 86 41" fill="none" xmlns="http://www.w3.org/2000/svg">
<path d="M58.9877 27.7024L53.4425 15.2486H50.5951L45 27.7024H47.9613L49.0646 25.0297H54.8661L55.9766 27.7024H58.9877ZM49.99 22.8261L51.9689 18.0564L53.9479 22.8261H49.99Z" fill="black"/>
<path d="M70.9659 27.0736C71.3791 26.801 71.7139 26.4255 71.9374 25.9842C72.1608 25.5429 72.2652 25.0511 72.2401 24.5572C72.2648 23.8583 72.0515 23.1718 71.635 22.6095C71.2086 22.0683 70.6239 21.6733 69.9622 21.4793C70.4626 21.2223 70.8834 20.8341 71.1794 20.3562C71.4759 19.868 71.6289 19.3064 71.6208 18.7355C71.633 18.2709 71.5271 17.8108 71.313 17.3981C71.0989 16.9854 70.7835 16.6336 70.3964 16.3756C69.348 15.7286 68.1241 15.4231 66.8942 15.5012H60.8008V27.955H67.2501C68.5492 28.0403 69.844 27.7332 70.9659 27.0736ZM63.6695 17.6693H66.5169C67.0824 17.6321 67.6464 17.7606 68.1399 18.0389C68.3203 18.1552 68.4666 18.317 68.5641 18.508C68.6617 18.699 68.7068 18.9124 68.6951 19.1265C68.7093 19.3416 68.6677 19.5567 68.5741 19.751C68.4806 19.9453 68.3384 20.1121 68.1612 20.2354C67.6678 20.5137 67.1037 20.6421 66.5382 20.605H63.6909L63.6695 17.6693ZM63.6695 25.787V22.7091H67.0365C68.5741 22.7091 69.3358 23.2209 69.3358 24.2516C69.3515 24.4784 69.3063 24.7054 69.2049 24.909C69.1036 25.1127 68.9497 25.2857 68.7592 25.4102C68.2316 25.6943 67.6347 25.8248 67.0365 25.787H63.6695Z" fill="black"/>
<path d="M78.9384 18.2521C79.5722 17.9035 80.2865 17.7271 81.0099 17.7403C81.6079 17.7335 82.1998 17.8609 82.742 18.1132C83.2841 18.3654 83.7625 18.736 84.142 19.1976L85.9999 17.4916C85.404 16.7802 84.6478 16.2199 83.7932 15.8566C82.7691 15.4396 81.6673 15.2466 80.5621 15.2908C79.457 15.3349 78.3741 15.6151 77.3866 16.1125C76.384 16.6413 75.5466 17.4357 74.9664 18.4085C74.3877 19.4194 74.0833 20.5637 74.0833 21.7281C74.0833 22.8925 74.3877 24.0368 74.9664 25.0477C75.5486 26.0189 76.3855 26.8128 77.3866 27.3437C78.4484 27.9006 79.6327 28.1841 80.8319 28.1682C81.8406 28.1816 82.8412 27.9881 83.7718 27.5996C84.6397 27.229 85.4044 26.6533 85.9999 25.922L84.1207 24.2373C83.7447 24.7044 83.2674 25.0802 82.7249 25.3363C82.1823 25.5924 81.5886 25.7222 80.9885 25.7159C80.2651 25.7291 79.5509 25.5527 78.9171 25.2041C78.3173 24.8743 77.8236 24.3813 77.4934 23.7824C77.1615 23.1458 76.9882 22.4387 76.9882 21.721C76.9882 21.0033 77.1615 20.2962 77.4934 19.6596C77.829 19.061 78.3308 18.5722 78.9384 18.2521Z" fill="black"/>
<circle cx="21.8887" cy="19.3034" r="9.35646" fill="black"/>
<circle cx="33.5331" cy="6.63326" r="3.50452" fill="black"/>
<circle cx="21.7626" cy="36.363" r="3.50452" fill="black"/>
<circle cx="4.89246" cy="19.1877" r="3.50452" fill="black"/>
<path fill-rule="evenodd" clip-rule="evenodd" d="M35.9801 11.5564C37.246 13.8541 37.9663 16.4946 37.9663 19.3034C37.9663 26.4417 33.3142 32.4935 26.8765 34.5923L27.5091 36.4902C34.7414 34.1266 39.9663 27.3252 39.9663 19.3034C39.9663 16.1363 39.1519 13.1595 37.721 10.5709L35.9801 11.5564ZM6.67763 24.5238C8.27865 29.1898 11.9662 32.8865 16.6265 34.5L15.9653 36.3882C10.7196 34.5697 6.57092 30.4035 4.77637 25.1467L6.67763 24.5238ZM21.8887 3.22581C14.8253 3.22581 8.82578 7.78075 6.66719 14.1135L4.7833 13.4398C7.21858 6.33388 13.9571 1.22581 21.8887 1.22581C24.6146 1.22581 27.1996 1.82914 29.5174 2.90953L28.6812 4.72692C26.6178 3.76375 24.3161 3.22581 21.8887 3.22581Z" fill="black"/>
</svg>
